<svg width="17" height="17" viewBox="0 0 17 17" fill="none" xmlns="http://www.w3.org/2000/svg">
<path d="M13.4156 6.75113C13.3151 6.34648 13.1707 5.95333 12.985 5.58106C12.7967 5.21006 12.5671 4.86078 12.3018 4.54047L13.0719 3.90155C13.3854 4.27979 13.6563 4.69253 13.8786 5.13083C14.098 5.57041 14.2688 6.03426 14.3872 6.5109L13.416 6.7507L13.4156 6.75113Z" fill="white"/>
<path d="M12.7832 5.21764C12.7479 5.15801 12.7129 5.09795 12.6729 5.0413C12.6337 4.98423 12.5966 4.92545 12.557 4.86879L12.4331 4.70225L12.4024 4.66051L12.3692 4.62047L12.3032 4.54039L12.2371 4.45989C12.215 4.43305 12.1907 4.40835 12.1673 4.38279C12.12 4.3321 12.0749 4.27971 12.0267 4.22945L11.8789 4.08292L11.8423 4.04629L11.8035 4.01137L11.7256 3.94194C12.4007 3.41291 13.1163 2.93969 13.8796 2.5163C14.0031 2.6526 14.1309 2.78549 14.2451 2.92989C14.303 3.00145 14.3635 3.07088 14.4184 3.14457L14.5833 3.36606C14.4461 3.5326 14.3038 3.69702 14.1586 3.85888C14.0138 4.02031 13.8664 4.17791 13.7165 4.3321C13.5665 4.48672 13.4153 4.63623 13.2594 4.78446C13.1031 4.93269 12.9446 5.07708 12.7836 5.21807L12.7832 5.21764Z" fill="white"/>
<path d="M13.5803 7.98881C13.582 7.88445 13.5705 7.78052 13.5662 7.67659C13.5649 7.62462 13.5564 7.57266 13.5517 7.52112L13.5355 7.36565L13.5113 7.21103C13.5027 7.15949 13.4972 7.10752 13.4853 7.05684C13.4627 6.95504 13.4469 6.85196 13.418 6.75143L14.3891 6.51163C14.4223 6.63004 14.4419 6.75144 14.4679 6.87155C14.4816 6.93161 14.4888 6.99252 14.4986 7.05301L14.5271 7.23531L14.5467 7.41847C14.5527 7.4798 14.5616 7.54029 14.5638 7.60205C14.5697 7.72472 14.5821 7.84739 14.5804 7.97007L13.5798 7.98923L13.5803 7.98881Z" fill="white"/>
<path d="M12.3022 4.5404C12.0368 4.22009 11.7357 3.9296 11.4043 3.6736L12.0138 2.88007C12.4031 3.18036 12.7592 3.52324 13.0727 3.90148L12.3026 4.5404H12.3022Z" fill="white"/>
<path d="M13.5554 7.57264L13.5332 7.3652L13.5008 7.15905C13.4923 7.09004 13.4744 7.02274 13.4617 6.95417L13.4412 6.85194C13.434 6.81786 13.4242 6.78464 13.4157 6.75099C13.3518 6.48051 13.2619 6.21643 13.1562 5.96001C13.365 5.91486 13.5758 5.87311 13.7879 5.83563C13.9988 5.79857 14.21 5.7662 14.4234 5.73766C14.849 5.68059 15.2847 5.63842 15.7153 5.61542L15.7963 5.87908C15.821 5.96767 15.8427 6.05712 15.8657 6.14572L15.8993 6.27947L15.9275 6.41449C15.9453 6.50479 15.9654 6.59424 15.9811 6.68497C15.5841 6.86642 15.1838 7.03084 14.7817 7.17821C14.377 7.32602 13.9664 7.45763 13.5562 7.57221L13.5554 7.57264Z" fill="white"/>
<path d="M12.4287 11.4813C12.9373 10.8168 13.2917 10.045 13.4642 9.23056L14.4439 9.43459C14.2415 10.3964 13.8211 11.31 13.2227 12.0908L12.4291 11.4813H12.4287Z" fill="white"/>
<path d="M13.2334 10.0288C13.328 9.76815 13.4051 9.50151 13.4638 9.23061C13.5184 8.95843 13.5541 8.68284 13.5712 8.40555C14.3996 8.60276 15.2251 8.86898 16.0259 9.20079C16.005 9.38352 15.9663 9.5637 15.9339 9.74472L15.8713 10.0135C15.8602 10.0582 15.8508 10.1034 15.8389 10.1477L15.801 10.2806C14.9342 10.2652 14.0708 10.1792 13.2334 10.0284V10.0288Z" fill="white"/>
<path d="M11.5625 12.379C11.8828 12.1137 12.1733 11.8125 12.4293 11.4811L13.2228 12.0907C12.9225 12.48 12.5797 12.8361 12.2014 13.1496L11.5625 12.3795V12.379Z" fill="white"/>
<path d="M13.4658 9.23047C13.5493 8.82284 13.5872 8.40541 13.58 7.98883L14.5805 7.96967C14.5895 8.46078 14.5443 8.95318 14.4455 9.43449L13.4658 9.23047Z" fill="white"/>
<path d="M11.874 12.1029C12.0729 11.9091 12.257 11.7 12.4299 11.481C12.5969 11.2574 12.7515 11.0261 12.8874 10.7838C13.2166 11.053 13.5378 11.3371 13.8504 11.6356C14.1626 11.9342 14.4595 12.2435 14.75 12.5689L14.6742 12.6839L14.5933 12.7955L14.431 13.0178L14.258 13.2321L14.1711 13.339L14.0796 13.4421C13.6903 13.2453 13.315 13.0383 12.9457 12.8138C12.5764 12.5893 12.219 12.3521 11.874 12.1033V12.1029Z" fill="white"/>
<path d="M8.11468 13.6556C8.21904 13.6573 8.32297 13.6458 8.4269 13.6415C8.47887 13.6403 8.53083 13.6317 8.58237 13.6271L8.73784 13.6109L8.89246 13.5866C8.944 13.5781 8.99596 13.5725 9.04665 13.5606C9.14845 13.538 9.25153 13.5223 9.35206 13.4933C9.7567 13.3928 10.1499 13.2484 10.5221 13.0627L10.9719 13.9563C10.5324 14.1757 10.0685 14.3465 9.59186 14.4649C9.47345 14.4981 9.35206 14.5177 9.23194 14.5437C9.17188 14.5573 9.11097 14.5646 9.05049 14.5744L8.86818 14.6029L8.68502 14.6225C8.62369 14.6285 8.5632 14.6374 8.50144 14.6395C8.37877 14.6455 8.2561 14.6578 8.13342 14.6561L8.11426 13.6556H8.11468Z" fill="white"/>
<path d="M9.75391 13.3792C10.0171 13.291 10.2744 13.1854 10.5232 13.0623C10.7698 12.9353 11.0075 12.7918 11.2349 12.6333C11.5965 13.4034 11.9028 14.2153 12.1413 15.0489L12.0229 15.1196C11.9833 15.1426 11.942 15.1635 11.9015 15.1856L11.6579 15.3155C11.4913 15.3935 11.3273 15.4774 11.1561 15.5451C10.6284 14.8572 10.1586 14.1284 9.75391 13.3787V13.3792Z" fill="white"/>
<path d="M6.87297 13.5414C7.2806 13.6249 7.69803 13.6628 8.11461 13.6555L8.13377 14.6561C7.64266 14.665 7.15026 14.6199 6.66895 14.5211L6.87297 13.5414Z" fill="white"/>
<path d="M10.5225 13.0623C10.8935 12.874 11.2427 12.6445 11.563 12.3791L12.202 13.1492C11.8237 13.4627 11.411 13.7336 10.9727 13.9559L10.5229 13.0623H10.5225Z" fill="white"/>
<path d="M7.28265 13.6092C7.55781 13.645 7.83596 13.6637 8.11367 13.6556C8.1486 13.6548 8.1831 13.6556 8.21803 13.6539L8.32196 13.6476C8.39139 13.6424 8.46082 13.642 8.52982 13.6326L8.73726 13.6105L8.94342 13.5781C8.93873 14.0036 8.91786 14.4343 8.8791 14.8636C8.84034 15.2904 8.78454 15.7198 8.71213 16.15C8.62055 16.1585 8.52897 16.1619 8.43697 16.1679L8.29939 16.1755L8.16138 16.1777C8.06938 16.1785 7.97737 16.1807 7.88579 16.1798L7.61021 16.17C7.52118 15.7479 7.44962 15.316 7.39468 14.8905C7.36742 14.6771 7.34442 14.4645 7.32525 14.2515C7.30651 14.0369 7.29245 13.8226 7.28223 13.6092H7.28265Z" fill="white"/>
<path d="M3.72421 11.6397C3.98958 11.96 4.29072 12.2505 4.6221 12.5065C4.95477 12.7608 5.31342 12.9767 5.69123 13.1505L5.27295 14.0595C4.82656 13.8542 4.40359 13.599 4.013 13.3004C3.62369 13.0001 3.2676 12.6573 2.9541 12.279L3.72421 11.6401V11.6397Z" fill="white"/>
<path d="M4.96465 12.7463L5.05197 12.8034L5.09542 12.8319L5.14057 12.8579L5.32032 12.9631C5.38123 12.9967 5.44342 13.027 5.50475 13.0593C5.53585 13.0751 5.56566 13.0921 5.59718 13.1066L5.69174 13.1496L5.7863 13.1931L5.83358 13.2148L5.88214 13.234L6.07509 13.3111C6.14026 13.3345 6.20629 13.3558 6.27188 13.3788C6.33705 13.4031 6.40392 13.421 6.47037 13.4397C6.37581 13.6314 6.27742 13.8218 6.17434 14.0113C6.07169 14.2 5.96605 14.3849 5.8553 14.5698C5.74498 14.7542 5.63041 14.9373 5.51199 15.1192C5.39315 15.3015 5.27091 15.4813 5.14568 15.6568L4.88884 15.5545C4.80322 15.5205 4.72059 15.4796 4.63667 15.4425C4.46757 15.3693 4.30657 15.2802 4.14258 15.1959C4.3547 14.3491 4.6273 13.5356 4.9638 12.7467L4.96465 12.7463Z" fill="white"/>
<path d="M3.04207 10.5991C3.23034 10.9701 3.45993 11.3194 3.72529 11.6397L2.95518 12.2786C2.64168 11.9004 2.37078 11.4876 2.14844 11.0493L3.04207 10.5995V10.5991Z" fill="white"/>
<path d="M5.69074 13.1501C6.06855 13.3238 6.46511 13.4555 6.87231 13.5415L6.66829 14.5212C6.18739 14.4198 5.71843 14.2643 5.27246 14.059L5.69074 13.1501Z" fill="white"/>
<path d="M3.24438 10.962C3.27974 11.0216 3.31467 11.0817 3.3547 11.1383C3.39389 11.1954 3.43095 11.2542 3.47056 11.3108L3.59451 11.4774L3.62518 11.5191L3.6584 11.5592L3.72443 11.6392L3.79045 11.7197C3.8126 11.7466 3.83688 11.7713 3.8603 11.7968C3.90758 11.8475 3.95273 11.8999 4.00086 11.9502L4.14867 12.0967L4.1853 12.1333L4.22406 12.1683L4.30201 12.2377C3.62688 12.7667 2.91129 13.2399 2.148 13.6633C2.02448 13.527 1.89669 13.3941 1.78254 13.2497C1.72461 13.1782 1.66413 13.1087 1.60918 13.0351L1.44434 12.8136C1.58149 12.647 1.72376 12.4826 1.86901 12.3207C2.01383 12.1593 2.1612 12.0017 2.31114 11.8475C2.46107 11.6929 2.61228 11.5434 2.76818 11.3952C2.9245 11.2469 3.08295 11.1025 3.24396 10.962H3.24438Z" fill="white"/>
<path d="M2.56167 6.94954C2.47819 7.35717 2.44028 7.7746 2.44752 8.19117C2.44581 8.29553 2.45732 8.39946 2.46158 8.50339C2.46285 8.55536 2.47137 8.60732 2.47606 8.65886L2.49224 8.81433L2.51652 8.96895C2.52504 9.02049 2.53058 9.07246 2.5425 9.12314C2.56508 9.22494 2.58084 9.32802 2.6098 9.42855L1.63865 9.66835C1.60542 9.54994 1.58583 9.42855 1.55985 9.30843C1.54622 9.24837 1.53898 9.18746 1.52918 9.12698L1.50064 8.94467L1.48105 8.76152C1.47508 8.70018 1.46614 8.6397 1.46401 8.57793C1.45805 8.45526 1.44569 8.33259 1.4474 8.20992C1.43845 7.7188 1.4836 7.22641 1.58242 6.74509L2.5621 6.94912L2.56167 6.94954Z" fill="white"/>
<path d="M2.47068 8.60739L2.49283 8.81483L2.5252 9.02098C2.53372 9.08999 2.55161 9.15729 2.56439 9.22586L2.58484 9.32809C2.59208 9.36217 2.60187 9.39539 2.61039 9.42904C2.67428 9.69952 2.76416 9.9636 2.8698 10.22C2.66108 10.2652 2.45024 10.3069 2.23812 10.3444C2.02727 10.3815 1.81601 10.4138 1.60261 10.4424C1.17709 10.4994 0.741343 10.5416 0.310712 10.5646L0.229781 10.301C0.205076 10.2124 0.183353 10.1229 0.160352 10.0343L0.126703 9.90056L0.0985915 9.76554C0.0807017 9.67524 0.0606819 9.58579 0.0449219 9.49506C0.441903 9.31403 0.842291 9.14919 1.24438 9.00182C1.64903 8.85401 2.05965 8.7224 2.46983 8.60782L2.47068 8.60739Z" fill="white"/>
<path d="M2.95413 5.76798C2.78034 6.14579 2.64872 6.54235 2.56268 6.94956L1.58301 6.74553C1.68438 6.26463 1.83985 5.79567 2.04516 5.3497L2.95413 5.76798Z" fill="white"/>
<path d="M2.61025 9.42899C2.71078 9.83363 2.85517 10.2268 3.04089 10.5991L2.14725 11.0489C1.92789 10.6093 1.75708 10.1454 1.63867 9.66879L2.60983 9.42899H2.61025Z" fill="white"/>
<path d="M2.7925 6.15081C2.69794 6.41149 2.62084 6.67813 2.56206 6.94904C2.50754 7.22122 2.47176 7.4968 2.45473 7.77409C1.62626 7.57688 0.800778 7.31066 0 6.97885C0.0208713 6.79612 0.0596313 6.61595 0.0920032 6.43492L0.154619 6.16615C0.165693 6.12142 0.175062 6.07627 0.186988 6.03197L0.224898 5.89908C1.0917 5.91441 1.95509 6.00045 2.7925 6.15124V6.15081Z" fill="white"/>
<path d="M5.50463 3.11727C4.76221 3.4938 4.10838 4.0356 3.59725 4.69838L2.80371 4.08885C3.40344 3.30937 4.17781 2.66704 5.05441 2.22321L5.50421 3.11684L5.50463 3.11727Z" fill="white"/>
<path d="M4.15235 4.07688C3.95344 4.27068 3.76943 4.47982 3.59649 4.69876C3.42952 4.92238 3.2749 5.15367 3.13903 5.39603C2.80977 5.12683 2.48861 4.84272 2.17596 4.54414C1.86375 4.24555 1.56686 3.93631 1.27637 3.61089L1.35219 3.49588L1.43311 3.38429L1.5954 3.16194L1.76833 2.94769L1.85523 2.84078L1.94681 2.7377C2.33612 2.93449 2.71138 3.1415 3.08067 3.36597C3.44997 3.59045 3.80734 3.8277 4.15235 4.07645V4.07688Z" fill="white"/>
<path d="M6.67553 2.68664C6.27089 2.78716 5.87774 2.93156 5.50546 3.11727L5.05566 2.22364C5.49524 2.00427 5.95909 1.83347 6.43573 1.71506L6.67553 2.68621V2.68664Z" fill="white"/>
<path d="M3.59792 4.69876C3.34363 5.03143 3.12767 5.39007 2.95389 5.76789L2.04492 5.34961C2.25023 4.90322 2.50537 4.48025 2.80396 4.08966L3.59749 4.69919L3.59792 4.69876Z" fill="white"/>
<path d="M6.27414 2.80094C6.01091 2.88911 5.75364 2.99475 5.50489 3.11785C5.25826 3.24478 5.02059 3.38832 4.79313 3.54678C4.4315 2.77667 4.12525 1.96481 3.88672 1.13124L4.00513 1.06053C4.04474 1.03753 4.08606 1.01665 4.12653 0.994506L4.37017 0.864593C4.53671 0.786645 4.7007 0.702735 4.87193 0.63501C5.39968 1.32291 5.8695 2.05171 6.27414 2.80137V2.80094Z" fill="white"/>
<path d="M10.3359 3.03005C9.95811 2.85626 9.56156 2.72465 9.15435 2.63861C8.74672 2.55512 8.3293 2.51721 7.91272 2.52445L7.89355 1.52391C8.38467 1.51496 8.87706 1.56011 9.35838 1.65893C9.83927 1.76031 10.3082 1.91577 10.7542 2.12108L10.3359 3.03005Z" fill="white"/>
<path d="M8.74377 2.57078C8.46861 2.535 8.19047 2.51626 7.91275 2.52435C7.87782 2.52521 7.84332 2.52435 7.80839 2.52606L7.70446 2.53245C7.63503 2.53756 7.56561 2.53798 7.4966 2.54735L7.28917 2.5695L7.08301 2.60188C7.08769 2.17636 7.10856 1.74572 7.14733 1.31637C7.18609 0.889573 7.24189 0.46022 7.3143 0.0300141C7.40587 0.0214952 7.49745 0.0180858 7.58946 0.0121226L7.72704 0.00445584L7.86504 0.00232663C7.95705 0.00147474 8.04905 -0.000654474 8.14063 0.000197418L8.41622 0.00999334C8.50524 0.432106 8.5768 0.864017 8.63175 1.28954C8.65901 1.50294 8.68201 1.71548 8.70118 1.92846C8.71992 2.14313 8.73397 2.35738 8.7442 2.57078H8.74377Z" fill="white"/>
<path d="M11.4051 3.6736C11.0724 3.41932 10.7138 3.20336 10.3359 3.02957L10.7542 2.12061C11.2006 2.32591 11.6236 2.58105 12.0142 2.87964L11.4046 3.67318L11.4051 3.6736Z" fill="white"/>
<path d="M7.91273 2.52439C7.80837 2.52269 7.70444 2.53419 7.60051 2.53845C7.54854 2.53972 7.49658 2.54824 7.44504 2.55293L7.28957 2.56912L7.13495 2.59339C7.08341 2.60191 7.03145 2.60745 6.98076 2.61938C6.87896 2.64195 6.77588 2.65771 6.67535 2.68668L6.43555 1.71552C6.55396 1.6823 6.67535 1.6627 6.79547 1.63672C6.85553 1.62309 6.91644 1.61585 6.97692 1.60605L7.15923 1.57751L7.34239 1.55792C7.40372 1.55196 7.46421 1.54301 7.52597 1.54088C7.64864 1.53492 7.77132 1.52256 7.89399 1.52427L7.91315 2.52482L7.91273 2.52439Z" fill="white"/>
<path d="M11.0624 3.43344L10.975 3.37636L10.9316 3.34782L10.8864 3.32184L10.7067 3.21663C10.6458 3.18298 10.5836 3.15274 10.5223 3.12037C10.4912 3.10461 10.4613 3.08757 10.4298 3.07309L10.3353 3.03007L10.2407 2.98662L10.1934 2.96489L10.1449 2.94573L9.95192 2.86863C9.88675 2.8452 9.82073 2.82391 9.75513 2.80091C9.68996 2.77663 9.62309 2.75874 9.55664 2.74C9.6512 2.54832 9.74959 2.35792 9.85267 2.16838C9.95532 1.97968 10.061 1.79482 10.1717 1.60996C10.282 1.42553 10.3966 1.24237 10.515 1.06049C10.6339 0.878188 10.7561 0.698439 10.8813 0.522949L11.1382 0.625175C11.2238 0.65925 11.3064 0.700141 11.3903 0.737199C11.5594 0.810461 11.7204 0.899483 11.8844 0.98382C11.6723 1.8306 11.3997 2.64416 11.0632 3.43301L11.0624 3.43344Z" fill="white"/>
</svg>
