<svg width="76" height="76" viewBox="0 0 76 76" fill="none" xmlns="http://www.w3.org/2000/svg">
<path d="M61.5501 63.1339H14.446C12.3463 63.1339 10.3327 62.2998 8.84803 60.8151C7.36337 59.3305 6.5293 57.3168 6.5293 55.2172V20.7829C6.5293 18.6832 7.36337 16.6696 8.84803 15.1849C10.3327 13.7003 12.3463 12.8662 14.446 12.8662H61.5501C63.6498 12.8662 65.6634 13.7003 67.1481 15.1849C68.6327 16.6696 69.4668 18.6832 69.4668 20.7829V55.2172C69.4668 57.3168 68.6327 59.3305 67.1481 60.8151C65.6634 62.2998 63.6498 63.1339 61.5501 63.1339ZM14.446 16.0329C13.1862 16.0329 11.978 16.5333 11.0872 17.4241C10.1964 18.3149 9.69596 19.5231 9.69596 20.7829V55.2172C9.69596 56.477 10.1964 57.6852 11.0872 58.576C11.978 59.4668 13.1862 59.9672 14.446 59.9672H61.5501C62.8099 59.9672 64.0181 59.4668 64.9089 58.576C65.7997 57.6852 66.3001 56.477 66.3001 55.2172V20.7829C66.3001 19.5231 65.7997 18.3149 64.9089 17.4241C64.0181 16.5333 62.8099 16.0329 61.5501 16.0329H14.446Z" fill="white"/>
<path d="M46.1324 35.3052L33.5671 26.7013C33.0763 26.3662 32.5035 26.1712 31.9101 26.1374C31.3168 26.1035 30.7255 26.2321 30.1999 26.5093C29.6742 26.7865 29.234 27.2017 28.9268 27.7104C28.6195 28.2191 28.4568 28.8019 28.4561 29.3962V46.6038C28.4568 47.1981 28.6195 47.7809 28.9268 48.2896C29.234 48.7983 29.6742 49.2136 30.1999 49.4907C30.7255 49.7679 31.3168 49.8965 31.9101 49.8626C32.5035 49.8288 33.0763 49.6338 33.5671 49.2987L46.1451 40.6948C46.5826 40.3941 46.9402 39.9912 47.1868 39.521C47.4335 39.0508 47.5617 38.5276 47.5605 37.9967C47.5592 37.4657 47.4285 36.9431 47.1797 36.4741C46.9308 36.0051 46.5713 35.6039 46.1324 35.3052Z" fill="white"/>
</svg>
