<svg width="31" height="31" viewBox="0 0 31 31" fill="none" xmlns="http://www.w3.org/2000/svg">
<path d="M25.3262 12.744C25.1365 11.9802 24.8639 11.2381 24.5133 10.5353C24.1579 9.83502 23.7246 9.1757 23.2236 8.57105L24.6773 7.36499C25.2691 8.07898 25.7805 8.8581 26.2002 9.68546C26.6143 10.5152 26.9367 11.3908 27.1602 12.2906L25.327 12.7432L25.3262 12.744Z" fill="#0075BA"/>
<path d="M24.1302 9.84924C24.0635 9.73667 23.9976 9.6233 23.922 9.51637C23.848 9.40862 23.7781 9.29767 23.7033 9.19073L23.4693 8.87635L23.4114 8.79755L23.3487 8.72197L23.2241 8.57081L23.0994 8.41885C23.0576 8.36819 23.0118 8.32156 22.9676 8.27332C22.8783 8.17764 22.7931 8.07874 22.7022 7.98386L22.4232 7.70727L22.3541 7.63812L22.2809 7.57219L22.1338 7.44113C23.4082 6.44251 24.759 5.54922 26.1998 4.75C26.433 5.00729 26.6742 5.25815 26.8897 5.53072C26.9991 5.6658 27.1132 5.79686 27.217 5.93596L27.5281 6.35407C27.2692 6.66845 27.0007 6.9788 26.7265 7.28434C26.4531 7.58907 26.1749 7.88657 25.8919 8.17764C25.6089 8.4695 25.3234 8.75172 25.0291 9.03153C24.7341 9.31134 24.435 9.58391 24.131 9.85004L24.1302 9.84924Z" fill="#0075BA"/>
<path d="M25.6335 15.0802C25.6367 14.8832 25.615 14.687 25.607 14.4908C25.6045 14.3927 25.5885 14.2946 25.5796 14.1973L25.5491 13.9039L25.5032 13.612C25.4872 13.5147 25.4767 13.4166 25.4542 13.3209C25.4116 13.1288 25.3818 12.9342 25.3271 12.7444L27.1604 12.2917C27.2231 12.5153 27.2601 12.7444 27.3091 12.9712C27.3348 13.0845 27.3485 13.1995 27.367 13.3137L27.4209 13.6578L27.4579 14.0036C27.4691 14.1193 27.486 14.2335 27.49 14.3501C27.5013 14.5817 27.5246 14.8132 27.5214 15.0448L25.6327 15.081L25.6335 15.0802Z" fill="#0075BA"/>
<path d="M23.2242 8.57068C22.7233 7.96604 22.1548 7.41769 21.5293 6.93446L22.6799 5.43652C23.4148 6.00337 24.087 6.65063 24.6787 7.36462L23.225 8.57068H23.2242Z" fill="#0075BA"/>
<path d="M25.5903 14.2947L25.5485 13.9031L25.4874 13.5139C25.4713 13.3837 25.4375 13.2567 25.4134 13.1272L25.3748 12.9342C25.3612 12.8699 25.3427 12.8072 25.3266 12.7437C25.206 12.2331 25.0363 11.7346 24.8369 11.2506C25.2309 11.1653 25.6289 11.0865 26.0293 11.0158C26.4273 10.9458 26.8261 10.8847 27.2289 10.8309C28.0322 10.7231 28.8547 10.6435 29.6676 10.6001L29.8204 11.0978C29.867 11.265 29.908 11.4339 29.9514 11.6011L30.015 11.8536L30.068 12.1085C30.1018 12.2789 30.1396 12.4478 30.1693 12.619C29.42 12.9616 28.6642 13.2719 27.9051 13.5501C27.1413 13.8291 26.3662 14.0776 25.5919 14.2939L25.5903 14.2947Z" fill="#0075BA"/>
<path d="M23.4639 21.6729C24.4239 20.4186 25.0929 18.9616 25.4185 17.4243L27.2678 17.8095C26.8859 19.625 26.0923 21.3497 24.9626 22.8235L23.4647 21.6729H23.4639Z" fill="#0075BA"/>
<path d="M24.9824 18.9312C25.1609 18.4391 25.3065 17.9357 25.4174 17.4244C25.5203 16.9106 25.5879 16.3904 25.62 15.8669C27.1839 16.2392 28.7421 16.7417 30.2537 17.3681C30.2143 17.713 30.1412 18.0531 30.0801 18.3949L29.9619 18.9022C29.941 18.9866 29.9233 19.0719 29.9008 19.1555L29.8292 19.4063C28.193 19.3774 26.5632 19.215 24.9824 18.9303V18.9312Z" fill="#0075BA"/>
<path d="M21.8271 23.3675C22.4318 22.8666 22.9801 22.2982 23.4634 21.6726L24.9613 22.8232C24.3945 23.5581 23.7472 24.2303 23.0332 24.822L21.8271 23.3683V23.3675Z" fill="#0075BA"/>
<path d="M25.418 17.4242C25.5756 16.6547 25.6471 15.8667 25.6335 15.0804L27.5221 15.0442C27.539 15.9713 27.4538 16.9007 27.2673 17.8093L25.418 17.4242Z" fill="#0075BA"/>
<path d="M22.415 22.8463C22.7905 22.4805 23.1379 22.0857 23.4643 21.6724C23.7795 21.2503 24.0714 20.8137 24.3279 20.3562C24.9494 20.8644 25.5556 21.4007 26.1458 21.9643C26.7352 22.5279 27.2956 23.1117 27.8439 23.7259L27.7008 23.943L27.5481 24.1537L27.2417 24.5734L26.9153 24.9778L26.7512 25.1797L26.5784 25.3742C25.8435 25.0028 25.1351 24.612 24.438 24.1883C23.7409 23.7645 23.0663 23.3167 22.415 22.8471V22.8463Z" fill="#0075BA"/>
<path d="M15.3182 25.7772C15.5152 25.7804 15.7114 25.7587 15.9075 25.7507C16.0056 25.7482 16.1037 25.7322 16.201 25.7233L16.4945 25.6928L16.7864 25.6469C16.8837 25.6308 16.9817 25.6204 17.0774 25.5979C17.2696 25.5553 17.4642 25.5255 17.6539 25.4708C18.4178 25.2811 19.1599 25.0085 19.8626 24.658L20.7117 26.3448C19.8819 26.7589 19.0063 27.0813 18.1066 27.3049C17.8831 27.3676 17.6539 27.4046 17.4272 27.4536C17.3138 27.4793 17.1988 27.493 17.0847 27.5115L16.7405 27.5654L16.3948 27.6024C16.279 27.6136 16.1648 27.6305 16.0483 27.6345C15.8167 27.6458 15.5851 27.6691 15.3536 27.6659L15.3174 25.7772H15.3182Z" fill="#0075BA"/>
<path d="M18.4111 25.2555C18.908 25.0891 19.3937 24.8897 19.8632 24.6573C20.3288 24.4177 20.7774 24.1468 21.2068 23.8477C21.8894 25.3014 22.4675 26.8339 22.9178 28.4074L22.6943 28.5409C22.6195 28.5843 22.5415 28.6237 22.4651 28.6655L22.0052 28.9107C21.6908 29.0579 21.3813 29.2163 21.058 29.3441C20.0618 28.0456 19.175 26.6698 18.4111 25.2547V25.2555Z" fill="#0075BA"/>
<path d="M12.974 25.5615C13.7435 25.7191 14.5314 25.7907 15.3178 25.777L15.354 27.6657C14.4269 27.6826 13.4974 27.5974 12.5889 27.4108L12.974 25.5615Z" fill="#0075BA"/>
<path d="M19.8633 24.6574C20.5636 24.302 21.2229 23.8686 21.8276 23.3677L23.0336 24.8214C22.3196 25.4132 21.5405 25.9245 20.7132 26.3442L19.8641 24.6574H19.8633Z" fill="#0075BA"/>
<path d="M13.7489 25.6896C14.2683 25.7571 14.7933 25.7925 15.3175 25.7772C15.3835 25.7756 15.4486 25.7772 15.5145 25.774L15.7107 25.7619C15.8418 25.7523 15.9728 25.7515 16.1031 25.7338L16.4947 25.692L16.8838 25.6309C16.875 26.4341 16.8356 27.247 16.7624 28.0575C16.6892 28.8631 16.5839 29.6736 16.4472 30.4857C16.2744 30.5018 16.1015 30.5082 15.9278 30.5194L15.6681 30.5339L15.4076 30.5379C15.2339 30.5395 15.0602 30.5436 14.8874 30.542L14.3672 30.5235C14.1991 29.7267 14.064 28.9114 13.9603 28.1081C13.9089 27.7053 13.8654 27.3041 13.8293 26.902C13.7939 26.4968 13.7673 26.0924 13.748 25.6896H13.7489Z" fill="#0075BA"/>
<path d="M7.02988 21.9719C7.5308 22.5766 8.09926 23.1249 8.7248 23.6081C9.35276 24.0882 10.0298 24.4958 10.743 24.8239L9.95338 26.5397C9.11075 26.1521 8.31233 25.6705 7.57502 25.1069C6.84013 24.54 6.16795 23.8928 5.57617 23.1788L7.02988 21.9727V21.9719Z" fill="#0075BA"/>
<path d="M9.37016 24.0605L9.53499 24.1683L9.617 24.2222L9.70223 24.2712L10.0415 24.4698C10.1565 24.5333 10.2739 24.5904 10.3897 24.6515C10.4484 24.6813 10.5047 24.7134 10.5642 24.7408L10.7427 24.822L10.9212 24.904L11.0104 24.945L11.1021 24.9812L11.4663 25.1267C11.5893 25.1709 11.7139 25.2111 11.8378 25.2545C11.9608 25.3004 12.087 25.3342 12.2125 25.3695C12.034 25.7314 11.8482 26.0908 11.6536 26.4486C11.4599 26.8047 11.2605 27.1537 11.0514 27.5027C10.8432 27.8508 10.6269 28.1965 10.4034 28.5399C10.179 28.884 9.94827 29.2233 9.71188 29.5546L9.22704 29.3616C9.06543 29.2973 8.90944 29.2201 8.75105 29.1501C8.43184 29.0118 8.12792 28.8438 7.81836 28.6846C8.21877 27.0862 8.73336 25.5504 9.36855 24.0614L9.37016 24.0605Z" fill="#0075BA"/>
<path d="M5.74157 20.0076C6.09696 20.7079 6.53034 21.3672 7.03126 21.9718L5.57755 23.1779C4.98577 22.4639 4.4744 21.6848 4.05469 20.8574L5.74157 20.0084V20.0076Z" fill="#0075BA"/>
<path d="M10.7437 24.823C11.4569 25.151 12.2054 25.3995 12.9741 25.5619L12.589 27.4112C11.6812 27.2199 10.7959 26.9264 9.9541 26.5388L10.7437 24.823Z" fill="#0075BA"/>
<path d="M6.1225 20.6926C6.18923 20.8052 6.25517 20.9186 6.33075 21.0255C6.40472 21.1332 6.47467 21.2442 6.54944 21.3511L6.78342 21.6655L6.84131 21.7443L6.90403 21.8199L7.02865 21.9711L7.15328 22.123C7.19509 22.1737 7.24092 22.2203 7.28514 22.2686C7.37439 22.3642 7.45962 22.4631 7.55048 22.558L7.82948 22.8346L7.89863 22.9037L7.9718 22.9697L8.11894 23.1007C6.84453 24.0994 5.49374 24.9927 4.05289 25.7919C3.81972 25.5346 3.5785 25.2837 3.36302 25.0111C3.25367 24.8761 3.1395 24.745 3.03578 24.6059L2.72461 24.1878C2.98351 23.8734 3.25206 23.5631 3.52624 23.2575C3.79962 22.9528 4.07782 22.6553 4.36084 22.3642C4.64386 22.0724 4.9293 21.7901 5.22358 21.5103C5.51866 21.2305 5.81776 20.958 6.12169 20.6926H6.1225Z" fill="#0075BA"/>
<path d="M4.83691 13.1184C4.67932 13.8878 4.60776 14.6758 4.62143 15.4621C4.61822 15.6591 4.63993 15.8553 4.64797 16.0515C4.65038 16.1496 4.66646 16.2477 4.6753 16.345L4.70586 16.6385L4.75169 16.9303C4.76777 17.0276 4.77822 17.1257 4.80073 17.2214C4.84335 17.4136 4.8731 17.6081 4.92777 17.7979L3.09455 18.2506C3.03184 18.027 2.99486 17.7979 2.94581 17.5712C2.92008 17.4578 2.90641 17.3428 2.88791 17.2286L2.83405 16.8845L2.79706 16.5388C2.7858 16.423 2.76892 16.3088 2.7649 16.1922C2.75364 15.9607 2.73032 15.7291 2.73354 15.4975C2.71665 14.5705 2.80188 13.641 2.98842 12.7324L4.83772 13.1176L4.83691 13.1184Z" fill="#0075BA"/>
<path d="M4.66399 16.2478L4.7058 16.6394L4.7669 17.0285C4.78298 17.1588 4.81675 17.2858 4.84087 17.4153L4.87947 17.6082C4.89314 17.6726 4.91163 17.7353 4.92771 17.7988C5.04832 18.3094 5.21797 18.8079 5.41738 19.2919C5.02339 19.3771 4.62539 19.4559 4.22498 19.5267C3.82698 19.5966 3.42817 19.6578 3.02535 19.7116C2.22211 19.8194 1.39957 19.899 0.586683 19.9424L0.433913 19.4447C0.387278 19.2774 0.346272 19.1086 0.302854 18.9413L0.239336 18.6889L0.186271 18.434C0.152501 18.2635 0.114711 18.0947 0.0849609 17.9234C0.834329 17.5817 1.59013 17.2705 2.34914 16.9923C3.11299 16.7133 3.88808 16.4649 4.66238 16.2486L4.66399 16.2478Z" fill="#0075BA"/>
<path d="M5.57552 10.888C5.24747 11.6011 4.99902 12.3497 4.8366 13.1184L2.9873 12.7332C3.17867 11.8255 3.47215 10.9402 3.85969 10.0984L5.57552 10.888Z" fill="#0075BA"/>
<path d="M4.92777 17.7988C5.11753 18.5627 5.3901 19.3048 5.74066 20.0075L4.05378 20.8566C3.6397 20.0268 3.31727 19.1512 3.09375 18.2515L4.92697 17.7988H4.92777Z" fill="#0075BA"/>
<path d="M5.27131 11.6107C5.09281 12.1028 4.94727 12.6061 4.83632 13.1175C4.7334 13.6312 4.66586 14.1515 4.6337 14.6749C3.06984 14.3026 1.5116 13.8001 0 13.1737C0.0393981 12.8288 0.112564 12.4887 0.173671 12.147L0.291868 11.6396C0.312773 11.5552 0.330458 11.47 0.352971 11.3864L0.424532 11.1355C2.06076 11.1644 3.69056 11.3269 5.27131 11.6115V11.6107Z" fill="#0075BA"/>
<path d="M10.3904 5.88422C8.98898 6.59499 7.75477 7.61774 6.78992 8.86883L5.29199 7.71824C6.42408 6.24684 7.88583 5.03435 9.54055 4.19653L10.3896 5.88341L10.3904 5.88422Z" fill="#0075BA"/>
<path d="M7.83906 7.69588C7.46357 8.06172 7.11622 8.4565 6.78978 8.86978C6.47459 9.2919 6.18273 9.7285 5.92624 10.186C5.30471 9.67784 4.69846 9.14155 4.10829 8.57791C3.51893 8.01428 2.95851 7.43055 2.41016 6.81626L2.55328 6.59916L2.70604 6.38851L3.01238 5.96879L3.33883 5.56436L3.50285 5.36255L3.67572 5.16797C4.41061 5.53944 5.11898 5.9302 5.81608 6.35393C6.51319 6.77766 7.18778 7.22551 7.83906 7.69508V7.69588Z" fill="#0075BA"/>
<path d="M12.6007 5.07133C11.8369 5.26108 11.0948 5.53365 10.392 5.88421L9.54297 4.19733C10.3727 3.78325 11.2483 3.46083 12.1481 3.2373L12.6007 5.07052V5.07133Z" fill="#0075BA"/>
<path d="M6.79091 8.86975C6.3109 9.49771 5.90325 10.1747 5.5752 10.8879L3.85938 10.0983C4.24692 9.25569 4.72855 8.45728 5.29218 7.71997L6.79011 8.87056L6.79091 8.86975Z" fill="#0075BA"/>
<path d="M11.8426 5.28729C11.3457 5.45373 10.8601 5.65313 10.3905 5.8855C9.92496 6.1251 9.4763 6.39606 9.04694 6.69517C8.36431 5.24146 7.7862 3.70895 7.33594 2.13544L7.55946 2.00197C7.63423 1.95855 7.71223 1.91915 7.78861 1.87734L8.24852 1.63211C8.56291 1.48497 8.87246 1.32657 9.19569 1.19873C10.1919 2.49726 11.0788 3.87298 11.8426 5.28809V5.28729Z" fill="#0075BA"/>
<path d="M19.5117 5.7197C18.7986 5.39165 18.05 5.1432 17.2813 4.98079C16.5119 4.82319 15.7239 4.75163 14.9375 4.7653L14.9014 2.87661C15.8284 2.85972 16.7579 2.94495 17.6665 3.13149C18.5742 3.32285 19.4595 3.61632 20.3013 4.00387L19.5117 5.7197Z" fill="#0075BA"/>
<path d="M16.5051 4.85277C15.9857 4.78523 15.4606 4.74986 14.9364 4.76513C14.8705 4.76674 14.8053 4.76513 14.7394 4.76835L14.5432 4.78041C14.4122 4.79006 14.2811 4.79086 14.1508 4.80855L13.7593 4.85036L13.3701 4.91147C13.379 4.10823 13.4184 3.29534 13.4915 2.48487C13.5647 1.67922 13.67 0.86874 13.8067 0.0566567C13.9796 0.0405758 14.1525 0.0341399 14.3261 0.0228833L14.5858 0.00841113L14.8463 0.00439189C15.02 0.00278381 15.1937 -0.00123543 15.3666 0.000372659L15.8868 0.0188641C16.0548 0.815671 16.1899 1.63097 16.2936 2.43421C16.3451 2.83704 16.3885 3.23826 16.4247 3.64028C16.4601 4.04552 16.4866 4.44995 16.5059 4.85277H16.5051Z" fill="#0075BA"/>
<path d="M21.5279 6.93447C20.9 6.45446 20.223 6.04681 19.5098 5.71876L20.2993 4.00293C21.142 4.39048 21.9404 4.8721 22.6777 5.43573L21.5271 6.93367L21.5279 6.93447Z" fill="#0075BA"/>
<path d="M14.9359 4.76515C14.7389 4.76194 14.5427 4.78364 14.3465 4.79168C14.2484 4.79409 14.1503 4.81018 14.053 4.81902L13.7596 4.84957L13.4677 4.89541C13.3704 4.91149 13.2723 4.92194 13.1766 4.94445C12.9845 4.98707 12.7899 5.01682 12.6001 5.07149L12.1475 3.23827C12.371 3.17556 12.6001 3.13857 12.8269 3.08952C12.9402 3.06379 13.0552 3.05013 13.1694 3.03163L13.5135 2.97776L13.8593 2.94078C13.9751 2.92952 14.0892 2.91263 14.2058 2.90861C14.4374 2.89736 14.6689 2.87404 14.9005 2.87725L14.9367 4.76596L14.9359 4.76515Z" fill="#0075BA"/>
<path d="M20.8833 6.48108L20.7185 6.37334L20.6365 6.31947L20.5512 6.27042L20.2119 6.07183C20.097 6.00831 19.9796 5.95122 19.8638 5.89011C19.8051 5.86036 19.7488 5.8282 19.6893 5.80087L19.5108 5.71966L19.3323 5.63764L19.2431 5.59664L19.1514 5.56046L18.7872 5.41492C18.6641 5.3707 18.5395 5.3305 18.4157 5.28708C18.2927 5.24125 18.1664 5.20748 18.041 5.1721C18.2195 4.81028 18.4052 4.45088 18.5998 4.09308C18.7936 3.73689 18.993 3.38793 19.2021 3.03898C19.4103 2.69082 19.6266 2.34509 19.8501 2.00176C20.0744 1.65763 20.3052 1.31833 20.5416 0.987061L21.0264 1.18003C21.188 1.24435 21.344 1.32154 21.5024 1.39149C21.8216 1.52979 22.1256 1.69783 22.4351 1.85703C22.0347 3.45547 21.5201 4.99119 20.8849 6.48028L20.8833 6.48108Z" fill="#0075BA"/>
</svg>
