<svg width="15" height="22" viewBox="0 0 15 22" fill="none" xmlns="http://www.w3.org/2000/svg">
<path d="M13.7731 21.2614L13.7732 21.2613C13.9784 21.0874 14.0979 20.8496 14.0979 20.5972C14.0979 20.3447 13.9784 20.107 13.7732 19.9331C13.7732 19.9331 13.7732 19.9331 13.7732 19.9331L3.50219 11.2136L13.7453 2.51777L13.7473 2.51777L13.7753 2.49407C13.9805 2.3202 14.1 2.08241 14.1 1.82998C14.1 1.57759 13.9806 1.33984 13.7754 1.16598C13.7754 1.16595 13.7753 1.16592 13.7753 1.16588L13.7107 1.24218C13.6205 1.16555 13.5127 1.10464 13.3936 1.06306C13.2746 1.02147 13.1466 1.00004 13.0174 1.00004C12.8881 1.00004 12.7602 1.02147 12.6411 1.06306C12.5221 1.10464 12.4143 1.16555 12.3241 1.24218L13.7731 21.2614ZM13.7731 21.2614C13.673 21.3459 13.5546 21.4122 13.4251 21.4572C13.2956 21.5023 13.157 21.5253 13.0174 21.5253C12.8778 21.5253 12.7392 21.5023 12.6097 21.4572C12.4802 21.4122 12.3618 21.3459 12.2617 21.2614L12.2615 21.2612L1.23717 11.904L1.23716 11.904C1.02391 11.7229 0.9 11.4757 0.9 11.2136C0.899999 10.9514 1.02391 10.7042 1.23716 10.5231L1.30188 10.5994L1.23716 10.5231L12.2593 1.16598M13.7731 21.2614L12.2593 1.16598M12.2593 1.16598C12.2594 1.16597 12.2594 1.16596 12.2594 1.16595L12.2593 1.16598Z" fill="#0075BA" stroke="#C9C9C9" stroke-width="0.2"/>
</svg>
