<svg width="15" height="22" viewBox="0 0 15 22" fill="none" xmlns="http://www.w3.org/2000/svg">
<path d="M13.7731 21.2618L13.7732 21.2617C13.9784 21.0879 14.0979 20.8501 14.0979 20.5976C14.0979 20.3452 13.9784 20.1075 13.7732 19.9336C13.7732 19.9336 13.7732 19.9336 13.7732 19.9336L3.50219 11.2141L13.7453 2.51826L13.7473 2.51826L13.7753 2.49456C13.9805 2.32069 14.1 2.0829 14.1 1.83047C14.1 1.57803 13.9805 1.34024 13.7753 1.16637M13.7731 21.2618L13.7107 1.24267M13.7731 21.2618C13.673 21.3463 13.5546 21.4127 13.4251 21.4577C13.2956 21.5027 13.157 21.5258 13.0174 21.5258C12.8778 21.5258 12.7392 21.5027 12.6097 21.4577C12.4802 21.4127 12.3618 21.3463 12.2617 21.2618L12.2615 21.2617L1.23717 11.9045L1.23716 11.9045C1.02391 11.7234 0.900001 11.4762 0.9 11.2141C0.9 10.9519 1.02391 10.7047 1.23716 10.5236L1.29651 10.5935L1.23716 10.5236L12.2593 1.16647M13.7731 21.2618L12.2593 1.16647M13.7753 1.16637L13.7107 1.24267M13.7753 1.16637C13.7753 1.1664 13.7754 1.16644 13.7754 1.16647L13.7107 1.24267M13.7753 1.16637C13.6752 1.0813 13.5565 1.0145 13.4266 0.969135C13.2967 0.923754 13.1576 0.90053 13.0174 0.90053C12.8772 0.90053 12.7381 0.923754 12.6082 0.969135C12.4783 1.01451 12.3595 1.08133 12.2594 1.16644L12.3241 1.24267M13.7107 1.24267C13.6205 1.16604 13.5127 1.10513 13.3936 1.06354C13.2746 1.02196 13.1466 1.00053 13.0174 1.00053C12.8881 1.00053 12.7602 1.02196 12.6411 1.06354C12.5221 1.10513 12.4143 1.16604 12.3241 1.24267M12.3241 1.24267L12.2593 1.16647M12.3241 1.24267L12.2593 1.16647" fill="#BDBDBD" stroke="#C9C9C9" stroke-width="0.2"/>
</svg>
