<svg width="15" height="22" viewBox="0 0 15 22" fill="none" xmlns="http://www.w3.org/2000/svg">
<path d="M1.22693 1.16394L1.22682 1.16404C1.0216 1.33791 0.902127 1.5757 0.902127 1.82813C0.902127 2.08055 1.02158 2.31833 1.22678 2.49219C1.22679 2.4922 1.2268 2.49221 1.22682 2.49223L11.4978 11.2117L1.25474 19.9075L1.25267 19.9075L1.22469 19.9312C1.01947 20.1051 0.900002 20.3429 0.900002 20.5953C0.900002 20.8477 1.01947 21.0855 1.22469 21.2594M1.22693 1.16394L1.28933 21.1831M1.22693 1.16394C1.32699 1.07943 1.44543 1.0131 1.57492 0.968073C1.70442 0.923042 1.84297 0.9 1.98261 0.9C2.12224 0.9 2.2608 0.923042 2.3903 0.968073C2.51979 1.0131 2.63823 1.07943 2.73828 1.16394L2.73847 1.1641L13.7628 10.5213L13.7628 10.5213C13.9761 10.7023 14.1 10.9495 14.1 11.2117C14.1 11.4739 13.9761 11.7211 13.7628 11.9021L13.7035 11.8322L13.7628 11.9022L2.74065 21.2593M1.22693 1.16394L2.74065 21.2593M1.22469 21.2594L1.28933 21.1831M1.22469 21.2594C1.22465 21.2594 1.22461 21.2593 1.22457 21.2593L1.28933 21.1831M1.22469 21.2594C1.32481 21.3445 1.44352 21.4113 1.57339 21.4566C1.70332 21.502 1.84242 21.5253 1.98261 21.5253C2.1228 21.5253 2.2619 21.502 2.39183 21.4566C2.52174 21.4113 2.64046 21.3444 2.7406 21.2593L2.67589 21.1831M1.28933 21.1831C1.37949 21.2597 1.48729 21.3207 1.60636 21.3622C1.72543 21.4038 1.85337 21.4253 1.98261 21.4253C2.11185 21.4253 2.23978 21.4038 2.35886 21.3622C2.47793 21.3207 2.58573 21.2597 2.67589 21.1831M2.67589 21.1831L2.74065 21.2593M2.67589 21.1831L2.74065 21.2593" fill="#C9C9C9" stroke="#C9C9C9" stroke-width="0.2"/>
</svg>
