<svg width="15" height="22" viewBox="0 0 15 22" fill="none" xmlns="http://www.w3.org/2000/svg">
<path d="M1.22682 1.16404L1.22693 1.16394C1.32699 1.07943 1.44543 1.0131 1.57492 0.968073C1.70442 0.923042 1.84297 0.9 1.98261 0.9C2.12224 0.9 2.2608 0.923042 2.3903 0.968073C2.51979 1.0131 2.63823 1.07943 2.73828 1.16394L2.73847 1.1641L13.7628 10.5213L13.7628 10.5213C13.9761 10.7023 14.1 10.9495 14.1 11.2117C14.1 11.4739 13.9761 11.7211 13.7628 11.9021L13.6981 11.8259L13.7628 11.9022L2.74065 21.2593C2.74063 21.2593 2.74062 21.2593 2.7406 21.2593C2.64046 21.3444 2.52174 21.4113 2.39183 21.4566C2.2619 21.502 2.1228 21.5253 1.98261 21.5253C1.84242 21.5253 1.70332 21.502 1.57339 21.4566C1.44346 21.4113 1.32472 21.3444 1.22457 21.2593C1.01943 21.0855 0.900002 20.8477 0.900002 20.5953C0.900002 20.3429 1.01947 20.1051 1.22469 19.9312L1.25267 19.9075L1.25474 19.9075L11.4978 11.2117L1.22682 2.49223C1.2268 2.49221 1.22679 2.4922 1.22678 2.49219C1.02158 2.31833 0.902127 2.08055 0.902127 1.82813C0.902127 1.5757 1.0216 1.33791 1.22682 1.16404Z" fill="#0075BA" stroke="#0075BA" stroke-width="0.2"/>
</svg>
