<svg width="20" height="20" viewBox="0 0 20 20" fill="none" xmlns="http://www.w3.org/2000/svg">
<g clip-path="url(#clip0_419_656)">
<path fill-rule="evenodd" clip-rule="evenodd" d="M7.2129 0.394288C5.27966 0.95662 3.56097 2.08894 2.28132 3.64332C1.00167 5.19771 0.220565 7.1019 0.0400391 9.10715H4.61147C4.87648 6.05579 5.76119 3.09058 7.21147 0.392859L7.2129 0.394288ZM4.61147 10.8929H0.0400391C0.220188 12.8982 1.00096 14.8026 2.28035 16.3572C3.55975 17.9118 5.27829 19.0445 7.21147 19.6071C5.76119 16.9094 4.87648 13.9442 4.61147 10.8929ZM9.5029 19.9886C7.76975 17.2421 6.70775 14.1261 6.4029 10.8929H13.5958C13.2909 14.1261 12.2289 17.2421 10.4958 19.9886C10.165 20.0046 9.83365 20.0046 9.5029 19.9886ZM12.7886 19.6057C14.7216 19.0431 16.44 17.9107 17.7193 16.3564C18.9987 14.802 19.7796 12.8979 19.96 10.8929H15.3886C15.1236 13.9442 14.2389 16.9094 12.7886 19.6071V19.6057ZM15.3886 9.10715H19.96C19.7799 7.10182 18.9991 5.19745 17.7197 3.6428C16.4403 2.08816 14.7218 0.955525 12.7886 0.392859C14.2389 3.09056 15.1236 6.05578 15.3886 9.10715ZM9.5029 0.011431C9.83413 -0.00478688 10.166 -0.00478688 10.4972 0.011431C12.2298 2.75802 13.2913 5.87402 13.5958 9.10715H6.40433C6.71432 5.85429 7.77861 2.73572 9.5029 0.011431Z" fill="#0177BC"/>
</g>
<defs>
<clipPath id="clip0_419_656">
<rect width="20" height="20" fill="white"/>
</clipPath>
</defs>
</svg>
