<svg width="19" height="28" viewBox="0 0 19 28" fill="none" xmlns="http://www.w3.org/2000/svg">
<path d="M4.45913 14.1924L17.7098 3.08118L17.7124 3.08118L17.7821 3.02291C18.0741 2.77856 18.25 2.43878 18.25 2.07195C18.25 1.70525 18.0742 1.36557 17.7824 1.12124C17.7823 1.12116 17.7822 1.12107 17.7821 1.12099L17.6216 1.31271C17.5037 1.21373 17.3628 1.13506 17.2071 1.08134C17.0514 1.02762 16.8841 0.999952 16.715 0.999952C16.546 0.999953 16.3787 1.02762 16.223 1.08134C16.0673 1.13506 15.9264 1.21373 15.8085 1.31271L4.45913 14.1924ZM4.45913 14.1924L17.7793 25.3619L4.45913 14.1924ZM1.23413 13.2075L15.6477 1.12124L17.7795 25.3621C18.0714 25.6064 18.2472 25.9461 18.2472 26.3129C18.2472 26.6797 18.0713 27.0195 17.7793 27.2639L17.7793 27.2639L17.779 27.2641C17.6362 27.3832 17.4684 27.4757 17.2864 27.5382C17.1044 27.6008 16.9103 27.6326 16.7151 27.6326C16.5198 27.6326 16.3257 27.6008 16.1437 27.5382C15.9617 27.4757 15.7939 27.3832 15.6511 27.2641L15.6506 27.2637L1.23415 15.1773L1.23412 15.1773C0.93168 14.9237 0.750003 14.5718 0.750003 14.1924C0.750003 13.8131 0.93168 13.4612 1.23412 13.2075L1.39476 13.3991L1.23413 13.2075Z" fill="black" stroke="black" stroke-width="0.5"/>
</svg>
