<svg width="19" height="28" viewBox="0 0 19 28" fill="none" xmlns="http://www.w3.org/2000/svg">
<path d="M1.22069 1.11871L1.22069 1.11871C0.928711 1.36306 0.752781 1.70284 0.752781 2.06967C0.752781 2.43647 0.928684 2.77623 1.22063 3.02057C1.22065 3.02059 1.22067 3.02061 1.22069 3.02063L14.5409 14.1901L1.29019 25.3014L1.28755 25.3014L1.21791 25.3597C0.925931 25.604 0.750002 25.9438 0.750002 26.3106C0.750002 26.6773 0.92581 27.017 1.21762 27.2613C1.21772 27.2614 1.21782 27.2615 1.21792 27.2616L1.37836 27.0699C1.49626 27.1688 1.63723 27.2475 1.79294 27.3012C1.94864 27.3549 2.11594 27.3826 2.28495 27.3826C2.45396 27.3826 2.62126 27.3549 2.77697 27.3012C2.93267 27.2475 3.07364 27.1688 3.19154 27.0699L1.22069 1.11871ZM1.22069 1.11871L1.22099 1.11847C1.36377 0.999353 1.53157 0.906826 1.71355 0.844321C1.89556 0.781806 2.0897 0.75 2.28495 0.75C2.4802 0.75 2.67433 0.781806 2.85634 0.84432C3.03832 0.906826 3.20613 0.999352 3.34891 1.11847L3.34937 1.11886L17.7659 13.2052L17.7659 13.2053C18.0683 13.4589 18.25 13.8108 18.25 14.1901C18.25 14.5695 18.0683 14.9214 17.7659 15.175L17.6052 14.9835L17.7659 15.175L3.35229 27.2613L1.22069 1.11871Z" fill="#0075BA" stroke="#0075BA" stroke-width="0.5"/>
</svg>
