<svg width="36" height="42" viewBox="0 0 36 42" fill="none" xmlns="http://www.w3.org/2000/svg">
<path d="M33.4766 18.5695L17.2132 35.6209C14.0878 38.8977 9.02488 38.8977 5.89947 35.6209C2.77406 32.3441 2.77406 27.0359 5.89947 23.759L23.5771 5.22486C24.5148 4.24175 25.7866 3.68944 27.1127 3.68944C28.4388 3.68944 29.7105 4.24175 30.6482 5.22486C31.5859 6.20797 32.1127 7.54136 32.1127 8.93169C32.1127 10.322 31.5859 11.6554 30.6482 12.6385L15.799 28.2072C15.0211 29.0227 13.7484 29.0227 12.9705 28.2072C12.1927 27.3917 12.1927 26.0573 12.9705 25.2418L26.4056 11.1558L24.2842 8.93169L10.8492 23.0177C9.91153 24.0008 9.38475 25.3342 9.38475 26.7245C9.38475 28.1148 9.91153 29.4482 10.8492 30.4313C11.7869 31.4144 13.0587 31.9668 14.3847 31.9668C15.7108 31.9668 16.9826 31.4144 17.9203 30.4313L32.7695 14.8626C35.8949 11.5858 35.8949 6.2776 32.7695 3.00076C29.6441 -0.276082 24.5812 -0.276082 21.4558 3.00076L3.77815 21.5349C-0.521061 26.0424 -0.521061 33.3375 3.77815 37.845C8.07736 42.3525 15.0353 42.3525 19.3345 37.845L35.598 20.7936L33.4766 18.5695Z" fill="#0177BC"/>
</svg>
